<svg xmlns:dc="http://purl.org/dc/elements/1.1/" xmlns:cc="http://creativecommons.org/ns#" xmlns:rdf="http://www.w3.org/1999/02/22-rdf-syntax-ns#" xmlns:svg="http://www.w3.org/2000/svg" xmlns="http://www.w3.org/2000/svg" xmlns:sodipodi="http://sodipodi.sourceforge.net/DTD/sodipodi-0.dtd" xmlns:inkscape="http://www.inkscape.org/namespaces/inkscape" version="1.1" x="0px" y="0px" viewBox="0 0 820 700" enable-background="new 0 0 2000 2000" xml:space="preserve"><path style="" d="m 29.243058,0.01198859 c -16.63,0.426 -28.53999981,13.82200041 -29.21299981,29.93900041 -0.75,17.254 12.62699981,31.852 29.84899981,32.602 l 97.117002,4.25 23.226,84.802001 c 0.155,1.927 0.48,3.852 0.997,5.75 l 80.05,290.18895 c 0.47,1.711 1.08,3.354 1.813,4.922 0.102,0.217 0.221,0.421 0.327,0.635 0.269,0.542 0.532,1.087 0.83,1.609 0.294,0.518 0.62,1.011 0.942,1.508 0.139,0.215 0.265,0.439 0.409,0.65 0.351,0.515 0.731,1.005 1.111,1.495 0.136,0.173 0.258,0.356 0.396,0.526 0.408,0.504 0.84,0.984 1.277,1.459 0.129,0.14 0.248,0.289 0.378,0.427 0.423,0.443 0.87,0.858 1.315,1.274 0.17,0.158 0.328,0.326 0.501,0.48 0.393,0.351 0.808,0.675 1.218,1.005 0.244,0.197 0.476,0.408 0.726,0.597 0.368,0.278 0.755,0.53 1.135,0.792 0.313,0.216 0.615,0.443 0.937,0.647 0.381,0.243 0.777,0.459 1.167,0.686 0.329,0.19 0.65,0.392 0.985,0.571 0.403,0.214 0.822,0.4 1.234,0.596 0.345,0.165 0.683,0.343 1.035,0.495 0.385,0.167 0.782,0.304 1.173,0.455 0.395,0.152 0.782,0.318 1.184,0.454 0.444,0.151 0.9,0.27 1.353,0.401 0.352,0.102 0.698,0.22 1.055,0.31 2.46,0.621 5.009,0.949 7.601,0.949 0.01,0 0.02,0 0.03,0 0,0 0.01,0 0.02,0 l 420.06201,0 c 14.066,0 26.379,-9.378 30.099,-22.943 l 80.05,-290.18895 c 2.625,-9.408 0.655,-19.472 -5.252,-27.223 -5.938,-7.783 -15.064,-12.348 -24.847,-12.348 l -555.73501,0 -24.521,-89.521001 c -3.594,-13.097 -15.251,-22.3470004 -28.818,-22.9410004 L 32.621058,0.09998859 c -1.149,-0.09 -2.281,-0.117 -3.39,-0.09 z M 222.93606,180.29799 l 497.53501,0 -62.763,227.67495 -372.40601,0 -62.366,-227.67495 z m 113.105,304.25495 c -47.447,0 -85.956,38.54 -85.956,85.957 0,47.417 38.509,85.957 85.956,85.957 47.35701,0 85.95801,-38.54 85.95801,-85.957 0,-47.417 -38.571,-85.957 -85.95801,-85.957 z m 260.49701,0 c -47.448,0 -85.957,38.54 -85.957,85.957 0,47.417 38.509,85.957 85.957,85.957 47.354,0 85.957,-38.54 85.957,-85.957 0,-47.417 -38.571,-85.957 -85.957,-85.957 z m -260.49701,62.514 c 12.88,0 23.444,10.534 23.444,23.443 0,12.909 -10.564,23.444 -23.444,23.444 -12.94,0 -23.44,-10.535 -23.44,-23.444 0,-12.909 10.5,-23.443 23.44,-23.443 z m 260.49701,0 c 12.878,0 23.444,10.534 23.444,23.443 0,12.909 -10.566,23.444 -23.444,23.444 -12.94,0 -23.443,-10.535 -23.443,-23.444 0,-12.909 10.503,-23.443 23.443,-23.443 z" fill="#000000"/></svg>
